<svg xmlns="http://www.w3.org/2000/svg" version="1.1" viewBox="-5.0 -10.0 110.0 135.0">
 <g fill-rule="evenodd">
  <path d="m2.082 50.277c0-26.461 21.453-47.914 47.918-47.914s47.918 21.453 47.918 47.914c0 26.465-21.453 47.918-47.918 47.918s-47.918-21.453-47.918-47.918zm47.918-43.75c-24.164 0-43.75 19.59-43.75 43.75 0 24.164 19.586 43.75 43.75 43.75s43.75-19.586 43.75-43.75c0-24.16-19.586-43.75-43.75-43.75z"/>
  <path d="m18.75 83.613c0-17.262 13.992-31.25 31.25-31.25s31.25 13.988 31.25 31.25c0 0.75-0.027344 1.4922-0.078125 2.2305-0.039063 0.57031-0.3125 1.0977-0.75391 1.4609-8.2734 6.8047-18.871 10.891-30.418 10.891s-22.145-4.0859-30.418-10.891c-0.44141-0.36328-0.71484-0.89063-0.75391-1.4609-0.050781-0.73828-0.078125-1.4805-0.078125-2.2305zm31.25-27.086c-14.957 0-27.082 12.125-27.082 27.086 0 0.34766 0.003906 0.69531 0.019531 1.043 7.4453 5.8711 16.844 9.3711 27.062 9.3711s19.617-3.5 27.062-9.3711c0.015625-0.34766 0.019531-0.69531 0.019531-1.043 0-14.961-12.125-27.086-27.082-27.086z"/>
  <path d="m31.25 37.777c0-10.355 8.3945-18.75 18.75-18.75s18.75 8.3945 18.75 18.75c0 10.355-8.3945 18.75-18.75 18.75s-18.75-8.3945-18.75-18.75zm18.75-14.582c-8.0547 0-14.582 6.5273-14.582 14.582 0 8.0547 6.5273 14.586 14.582 14.586s14.582-6.5312 14.582-14.586c0-8.0547-6.5273-14.582-14.582-14.582z"/>
 </g>
</svg>